<svg width="24" height="24" viewBox="0 0 24 24" fill="none" xmlns="http://www.w3.org/2000/svg">
<path d="M21 12C21 7.02944 16.9706 3 12 3C7.02944 3 3 7.02944 3 12C3 16.9706 7.02944 21 12 21V22C6.47715 22 2 17.5228 2 12C2 6.47715 6.47715 2 12 2C17.5228 2 22 6.47715 22 12C22 17.5228 17.5228 22 12 22V21C16.9706 21 21 16.9706 21 12Z" fill="#092221"/>
<path d="M15.1111 8L16 8.88889L8.88889 16L8 15.1111L15.1111 8Z" fill="#092221"/>
<path d="M16 15.1111L15.1111 16L8 8.88889L8.88889 8L16 15.1111Z" fill="#092221"/>
</svg>
